<?xml version="1.0" encoding="UTF-8" standalone="no"?>
<!-- Created with Inkscape (http://www.inkscape.org/) -->

<svg
   style="color:#04615b"
   viewBox="0 0 50 14"
   preserveAspectRatio="xMidYMid meet"
   version="1.1"
   id="svg1143"
   sodipodi:docname="logo_wide.svg"
   inkscape:version="1.2.1 (9c6d41e410, 2022-07-14)"
   xmlns:inkscape="http://www.inkscape.org/namespaces/inkscape"
   xmlns:sodipodi="http://sodipodi.sourceforge.net/DTD/sodipodi-0.dtd"
   xmlns="http://www.w3.org/2000/svg"
   xmlns:svg="http://www.w3.org/2000/svg">
  <sodipodi:namedview
     id="namedview9"
     pagecolor="#ffffff"
     bordercolor="#666666"
     borderopacity="1.0"
     inkscape:showpageshadow="2"
     inkscape:pageopacity="0.0"
     inkscape:pagecheckerboard="0"
     inkscape:deskcolor="#d1d1d1"
     showgrid="false"
     inkscape:zoom="10.985788"
     inkscape:cx="17.795719"
     inkscape:cy="16.111725"
     inkscape:window-width="1920"
     inkscape:window-height="1021"
     inkscape:window-x="0"
     inkscape:window-y="1080"
     inkscape:window-maximized="1"
     inkscape:current-layer="svg1143" />
  <defs
     id="defs1140">
    <rect
       x="135.27736"
       y="24.992273"
       width="145.20975"
       height="61.173183"
       id="rect1125" />
  </defs>
  <text
     xml:space="preserve"
     transform="matrix(0.29662968,0,0,0.29662968,-26.752034,-10.338194)"
     id="text1123"
     style="font-style:normal;font-weight:normal;font-size:53.3333px;line-height:1.25;font-family:sans-serif;white-space:pre;shape-inside:url(#rect1125);display:inline;fill:currentColor;fill-opacity:1;fill-rule:evenodd;stroke:none;stroke-width:0.999893;stroke-dasharray:none;image-rendering:auto"><tspan
       x="135.27734"
       y="73.518835"
       id="tspan336">VOSS</tspan></text>
  <path
     d="M 13.021788,5.1304196 10.994352,0.29029711 c -0.02463,-0.05903 -0.07449,-0.1029952 -0.134971,-0.1193476 -0.06048,-0.016249 -0.124896,-0.00311 -0.174732,0.035844 L 6.5192107,3.4589466 2.3537747,0.20678771 c -0.04983,-0.038645 -0.11431,-0.052086 -0.174733,-0.035844 -0.0605,0.016249 -0.110388,0.060207 -0.134971,0.119237 L 0.0166357,5.1303026 c -0.03417,0.08081 -0.01453,0.174732 0.04816,0.234665 l 6.31595,6.0427654 c 0.0392,0.03753 0.08866,0.05601 0.138565,0.05601 0,0 0,0 0,0 0.04983,0 0.09964,-0.01848 0.138567,-0.05601 L 12.973829,5.3649676 c 0.06267,-0.05999 0.08188,-0.153852 0.04817,-0.234665 z m -6.5874963,3.251898 c 4.22e-4,1.74e-4 0.03976,0.01905 0.08509,0.01905 0.04537,0 0.07287,-0.01398 0.0797,-0.01743 0.0013,-6.44e-4 0.594455,-0.280085 0.594455,-0.280085 L 6.5192017,10.502808 5.8449537,8.1037806 Z m 0.08492,-0.418698 -0.82297,-0.388344 -0.908332,-3.231733 1.731302,-0.408897 1.731384,0.408953 -0.90833,3.231643 z m -5.734454,-3.102045 0.972825,-1.108853 -0.07145,0.895896 z m 1.414384,-1.533549 1.401772,-0.287702 0.610279,1.011766 -2.109578,0.498395 z m 0.03416,-0.432197 0.149314,-1.8748921 0.989946,1.6410741 z m 1.926608,0.279469 1.587007,0.513964 -1.117808,0.263956 z m 3.131157,0.513964 1.586922,-0.513964 -0.469272,0.777942 z m 2.146173,-0.648955 1.4017783,0.287702 0.09746,1.222369 -2.1095793,-0.498338 z m 0.228166,-0.378206 0.9898633,-1.6411584 0.149315,1.8748914 -1.1391923,-0.233823 z m 1.6865363,1.986501 -0.07134,-0.895896 0.972819,1.108852 -0.901374,-0.212935 z M 9.2055937,2.6321146 7.5705177,3.1616486 10.057161,1.220177 Z m -5.373296,0 -0.851651,-1.4119489 2.486729,1.9413889 -1.635078,-0.529367 z m -2.020397,0.435222 -0.935969,1.066869 1.050881,-2.5088103 -0.114927,1.4420293 z m -0.01961,1.983885 0.745521,1.033759 -1.708604,-0.806287 z m 0.431916,-0.102036 2.167118,-0.511947 0.817321,2.908035 -1.904702,-0.898768 z m 3.133072,2.924984 0.653914,2.3265344 -2.205713,-3.0587594 z m 2.323753,0 1.551805,-0.732307 -2.205798,3.0588414 z m 0.148643,-0.528973 0.817402,-2.907947 2.1669453,0.511949 -1.0796443,1.497219 z m 3.4163483,-2.29394 0.963087,0.227495 -1.708612,0.806281 z m -0.01961,-1.983884 -0.114925,-1.4418516 1.05088,2.5087196 z m -9.9620403,2.875351 1.775191,0.837751 2.001971,2.776086 -3.777246,-3.613754 z m 8.734883,0.83766 1.7751913,-0.83766 -3.7771553,3.613837 z"
     id="shape.primary"
     fill="#004a55"
     fill-rule="nonzero"
     style="fill:currentColor;fill-opacity:1;stroke:none;stroke-width:0.0869216;image-rendering:auto" />
</svg>
