<?xml version="1.0" encoding="UTF-8" standalone="no"?>
<!-- Created with Inkscape (http://www.inkscape.org/) -->

<svg
   color="#000000"
   viewBox="0 0 44.998 9.9969778"
   width="100%"
   height="100%"
   version="1.1"
   id="svg878"
   sodipodi:docname="logo_w.svg"
   inkscape:version="1.2.1 (9c6d41e410, 2022-07-14)"
   xmlns:inkscape="http://www.inkscape.org/namespaces/inkscape"
   xmlns:sodipodi="http://sodipodi.sourceforge.net/DTD/sodipodi-0.dtd"
   xmlns="http://www.w3.org/2000/svg"
   xmlns:svg="http://www.w3.org/2000/svg">
  <sodipodi:namedview
     id="namedview9"
     pagecolor="#ffffff"
     bordercolor="#666666"
     borderopacity="1.0"
     inkscape:showpageshadow="2"
     inkscape:pageopacity="0.0"
     inkscape:pagecheckerboard="0"
     inkscape:deskcolor="#d1d1d1"
     showgrid="false"
     inkscape:zoom="21.341304"
     inkscape:cx="21.085872"
     inkscape:cy="-2.0617297"
     inkscape:window-width="1920"
     inkscape:window-height="1021"
     inkscape:window-x="0"
     inkscape:window-y="0"
     inkscape:window-maximized="1"
     inkscape:current-layer="svg878" />
  <defs
     id="defs875">
    <rect
       x="135.27736"
       y="24.992273"
       width="145.20975"
       height="61.173183"
       id="rect1125" />
  </defs>
  <g
     aria-label="VOSS"
     transform="matrix(0.25501504,0,0,0.25501504,-20.565755,-8.887833)"
     id="text1123"
     style="color:currentColor;font-size:53.3333px;line-height:1.25;white-space:pre;shape-inside:url(#rect1125);display:inline;fill:currentColor;fill-rule:evenodd;stroke-width:0.999893">
    <path
       d="M 165.57066,35.438858 152.824,73.518835 h -4.8 L 135.27734,35.438858 h 4.96 L 148.184,59.86551 q 0.74667,2.346665 1.28,4.426664 0.58667,2.026665 0.96,3.893331 0.32,-1.866666 0.90667,-3.946664 0.58666,-2.079999 1.33333,-4.479998 l 7.89333,-24.319985 z"
       id="path290" />
    <path
       d="m 201.25064,54.425513 q 0,5.919997 -1.86667,10.346661 -1.86666,4.37333 -5.54666,6.826662 -3.68,2.453332 -9.11999,2.453332 -5.6,0 -9.28,-2.453332 -3.68,-2.453332 -5.49333,-6.879996 -1.81333,-4.426664 -1.81333,-10.34666 0,-5.866663 1.81333,-10.239994 1.81333,-4.373331 5.49333,-6.826663 3.73333,-2.453332 9.33333,-2.453332 5.38666,0 9.06666,2.453332 3.68,2.399999 5.54666,6.826663 1.86667,4.373331 1.86667,10.293327 z m -28.10665,0 q 0,7.199996 2.77333,11.359993 2.82667,4.106665 8.8,4.106665 6.02666,0 8.74666,-4.106665 2.77333,-4.159997 2.77333,-11.359993 0,-7.199996 -2.77333,-11.253327 -2.72,-4.106664 -8.69333,-4.106664 -5.97333,0 -8.8,4.106664 -2.82666,4.053331 -2.82666,11.253327 z"
       id="path292" />
    <path
       d="m 229.51732,63.332174 q 0,5.066664 -3.46667,7.893329 -3.46666,2.826665 -9.33333,2.826665 -2.98666,0 -5.59999,-0.48 -2.56,-0.479999 -4.26667,-1.333332 v -4.586664 q 1.86667,0.853333 4.53333,1.546666 2.72,0.693333 5.54667,0.693333 3.89333,0 5.86666,-1.653333 1.97333,-1.653332 1.97333,-4.479997 0,-1.866666 -0.8,-3.146665 -0.74666,-1.279999 -2.56,-2.346665 -1.81333,-1.12 -4.95999,-2.346665 -4.42667,-1.759999 -6.82667,-4.319998 -2.34666,-2.559998 -2.34666,-6.986662 0,-3.039999 1.44,-5.173331 1.49333,-2.186665 4.05333,-3.359998 2.61333,-1.173332 6.02666,-1.173332 2.93333,0 5.38667,0.586666 2.45333,0.586666 4.53333,1.546666 l -1.49334,4.106664 q -1.91999,-0.853333 -4.10666,-1.439999 -2.13333,-0.586666 -4.42666,-0.586666 -3.25334,0 -4.96,1.546665 -1.65333,1.493333 -1.65333,3.999998 0,1.919999 0.74666,3.199998 0.74667,1.279999 2.45333,2.293332 1.70667,1.013333 4.53334,2.186665 3.14666,1.226666 5.27999,2.666665 2.18667,1.386666 3.30667,3.359998 1.12,1.973333 1.12,4.959997 z"
       id="path294" />
    <path
       d="m 257.09065,63.332174 q 0,5.066664 -3.46666,7.893329 -3.46667,2.826665 -9.33333,2.826665 -2.98667,0 -5.6,-0.48 -2.56,-0.479999 -4.26666,-1.333332 v -4.586664 q 1.86666,0.853333 4.53333,1.546666 2.72,0.693333 5.54666,0.693333 3.89333,0 5.86666,-1.653333 1.97334,-1.653332 1.97334,-4.479997 0,-1.866666 -0.8,-3.146665 -0.74667,-1.279999 -2.56,-2.346665 -1.81333,-1.12 -4.96,-2.346665 -4.42666,-1.759999 -6.82666,-4.319998 -2.34667,-2.559998 -2.34667,-6.986662 0,-3.039999 1.44,-5.173331 1.49333,-2.186665 4.05333,-3.359998 2.61334,-1.173332 6.02667,-1.173332 2.93333,0 5.38666,0.586666 2.45333,0.586666 4.53333,1.546666 l -1.49333,4.106664 q -1.92,-0.853333 -4.10667,-1.439999 -2.13333,-0.586666 -4.42666,-0.586666 -3.25333,0 -4.96,1.546665 -1.65333,1.493333 -1.65333,3.999998 0,1.919999 0.74667,3.199998 0.74666,1.279999 2.45333,2.293332 1.70666,1.013333 4.53333,2.186665 3.14666,1.226666 5.28,2.666665 2.18666,1.386666 3.30666,3.359998 1.12,1.973333 1.12,4.959997 z"
       id="path296" />
  </g>
  <path
     d="M 11.513914,4.3946335 9.7212403,0.11496164 C 9.6995743,0.06276455 9.6553243,0.02390528 9.6018723,0.00942554 9.5484103,-0.00493744 9.4914593,0.0067004 9.4473843,0.04117461 L 5.7642719,2.916753 2.0811606,0.041172 C 2.0370468,0.00700965 1.9800878,-0.00487516 1.9266711,0.00942296 1.8732154,0.02379891 1.8289717,0.06265809 1.807304,0.11486822 L 0.01463051,4.39454 c -0.0299715,0.071452 -0.0129747,0.1544948 0.042557,0.2074978 L 5.6417909,9.9450941 c 0.034643,0.033086 0.078498,0.049525 0.122481,0.049525 0,0 0,0 0,0 0.044113,0 0.088099,-0.016375 0.1224811,-0.049525 l 5.584615,-5.3430563 c 0.0554,-0.053027 0.07227,-0.1360474 0.04256,-0.2074978 z M 5.6892006,7.269985 c 3.762e-4,1.53e-4 0.035161,0.01671 0.075123,0.01671 0.040091,0 0.064485,-0.012327 0.070453,-0.015375 0.00109,-5.693e-4 0.5256177,-0.2476684 0.5256177,-0.2476684 L 5.7641423,9.1448271 5.1679684,7.0235891 Z M 5.7643239,6.8997665 5.0366386,6.5563914 4.2334924,3.6988699 5.7643239,3.3373211 7.2952202,3.6989205 6.4920611,6.5563615 Z M 0.69386833,4.156919 1.5540511,3.1764622 1.4908643,3.96862 Z M 1.9444853,2.8009424 3.1839311,2.5465579 3.7235484,3.4411666 1.8582426,3.8818519 Z M 1.9744569,2.4187911 2.1065003,0.76099984 2.9818115,2.2120486 Z M 3.6779943,2.6658901 5.0812196,3.1203388 4.092847,3.3537366 Z M 6.4465848,3.1203388 7.8497323,2.6658901 7.4348018,3.3537496 Z M 8.3442366,2.5465282 9.5836953,2.8009112 9.6698433,3.8817389 7.8045416,3.441103 Z M 8.5459799,2.212116 9.4212273,0.76099206 9.5532683,2.4187832 8.545993,2.2120551 Z M 10.037237,3.9685927 9.9740513,3.1764376 10.834235,4.1568918 10.037226,3.9686109 Z M 8.1394182,2.1856049 6.6936748,2.6538223 8.8923781,0.93715712 Z m -4.7511097,0 L 2.6352837,0.93714944 4.8340519,2.6537381 3.3883085,2.1856671 Z M 1.6018628,2.5704289 0.77427243,3.5137624 1.7034675,1.2954557 1.6018758,2.5705054 Z M 1.5844767,4.3245948 2.2436686,5.2386511 0.73290913,4.5257258 Z M 1.9663737,4.2343688 3.8825531,3.7817015 4.6052432,6.3530081 2.92109,5.5583111 Z M 4.7366508,6.8206599 5.3148547,8.877799 3.3645518,6.1732217 Z m 2.0546844,0 L 8.1634602,6.1731516 6.2130794,8.877799 Z M 6.9227688,6.3529405 7.6455236,3.7817118 9.5615473,4.2343792 8.606935,5.5582332 Z M 9.9435353,4.3246208 10.795102,4.5257686 9.2843293,5.2386848 Z M 9.9261453,2.5704588 9.8245533,1.2955621 10.753747,3.5137885 Z M 1.1176345,5.112864 2.6872732,5.8536097 4.4574227,8.3082439 1.1175697,5.112938 Z M 8.8410762,5.8535253 10.410714,5.112864 7.0709268,8.3082439 Z"
     id="shape.primary"
     fill="none"
     fill-rule="nonzero"
     style="color:currentColor;fill:currentColor;fill-opacity:1;stroke:none;stroke-width:0.0768566;image-rendering:auto" />
</svg>
