<?xml version="1.0" encoding="UTF-8" standalone="no"?>
<svg
   viewBox="0 0 500 500"
   version="1.1"
   id="svg_null"
   sodipodi:docname="logo_y.svg"
   inkscape:version="1.2.1 (9c6d41e410, 2022-07-14)"
   xmlns:inkscape="http://www.inkscape.org/namespaces/inkscape"
   xmlns:sodipodi="http://sodipodi.sourceforge.net/DTD/sodipodi-0.dtd"
   xmlns="http://www.w3.org/2000/svg"
   xmlns:svg="http://www.w3.org/2000/svg">
  <defs
     id="defs18" />
  <sodipodi:namedview
     id="namedview16"
     pagecolor="#ffffff"
     bordercolor="#666666"
     borderopacity="1.0"
     inkscape:showpageshadow="2"
     inkscape:pageopacity="0.0"
     inkscape:pagecheckerboard="0"
     inkscape:deskcolor="#d1d1d1"
     showgrid="false"
     inkscape:zoom="1.486"
     inkscape:cx="123.14939"
     inkscape:cy="241.58816"
     inkscape:window-width="1920"
     inkscape:window-height="1051"
     inkscape:window-x="0"
     inkscape:window-y="0"
     inkscape:window-maximized="1"
     inkscape:current-layer="root" />
  <g
     id="root"
     stroke="none"
     stroke-width="1"
     fill="none"
     fill-rule="evenodd">
    <rect
       id="background.accent"
       fill="#f6f6f6"
       x="0"
       y="0"
       width="500"
       height="499"
       style="fill:#ffffff;fill-opacity:1;stroke-width:0.998999" />
    <path
       d="m 159.53809,240.15089 -23.325,-55.684 c -0.284,-0.679 -0.857,-1.185 -1.553,-1.373 -0.696,-0.188 -1.437,-0.036 -2.01,0.411 l -47.921998,37.415 -47.922,-37.415 c -0.573,-0.447 -1.315,-0.598 -2.01,-0.41 -0.696,0.187 -1.27,0.693 -1.553,1.372 l -23.3249999,55.684 c -0.39,0.93 -0.168,2.01 0.5529999,2.7 l 72.663,69.52 c 0.448,0.429 1.02,0.644 1.594,0.644 0,0 0,0 0,0 0.574,0 1.146,-0.215 1.594,-0.644 l 72.662998,-69.52 c 0.721,-0.69 0.942,-1.77 0.553,-2.7 z m -75.786998,37.412 c 0.005,0.002 0.457,0.22 0.979,0.22 0.522,0 0.838,-0.162 0.917,-0.196 0.015,-0.007 6.839,-3.223 6.839,-3.223 l -7.758,27.599 -7.757,-27.6 z m 0.977,-4.817 -9.468,-4.468 -10.45,-37.18 19.918,-4.704 19.918998,4.705 -10.449998,37.179 z m -65.973,-35.688 11.192,-12.757 -0.822,10.307 z m 16.272,-17.643 16.127,-3.31 7.021,11.64 -24.27,5.734 z m 0.396,-4.972 1.718,-21.57 11.389,18.88 z m 22.165,3.215 18.258,5.913 -12.86,3.037 z m 36.023,5.913 18.256998,-5.913 -5.399,8.95 z m 24.690998,-7.466 16.127,3.31 1.121,14.063 -24.27,-5.733 z m 2.625,-4.351 11.388,-18.881 1.718,21.57 -13.106,-2.69 z m 19.403,22.854 -0.821,-10.307 11.192,12.757 -10.37,-2.45 z m -24.693,-23.199 -18.810998,6.092 28.607998,-22.336 z m -61.817998,0 -9.798,-16.244 28.609,22.335 -18.811,-6.09 z m -23.244,5.007 -10.768,12.274 12.09,-28.863 -1.322,16.59 z m -0.228,22.824 8.577,11.893 -19.657,-9.276 z m 4.969,-1.174 24.932,-5.89 9.403,33.456 -21.913,-10.34 z m 36.045,33.651 7.523,26.766 -25.376,-35.19 z m 26.734,0 17.852998,-8.425 -25.376998,35.191 z m 1.71,-6.086 9.403998,-33.455 24.93,5.89 -12.421,17.225 z m 39.303998,-26.391 11.08,2.617 -19.657,9.276 z m -0.228,-22.824 -1.322,-16.588 12.09,28.862 z m -114.609998,33.08 20.423,9.638 23.032,31.938 -43.456,-41.575 z m 100.491998,9.637 20.423,-9.637 -43.455,41.576 z"
       id="shape.primary"
       fill="#004a55"
       fill-rule="nonzero"
       style="fill:#f5cb5c;fill-opacity:1" />
    <g
       id="Group-2"
       transform="translate(67.399446,210.63872)">
      <rect
         id="Rectangle-35"
         x="0"
         y="0"
         width="420"
         height="60" />
      <text
         id="headerText.primary"
         font-family="'Share Tech Mono'"
         font-size="60px"
         font-weight="400"
         line-spacing="60"
         letter-spacing="3"
         fill="#004a55"
         data-text-alignment="C"
         font-style="normal"
         style="fill:#f5cb5c;fill-opacity:1"><tspan
           x="138.79041"
           y="45"
           id="tspan5"
           style="font-style:normal;font-variant:normal;font-weight:normal;font-stretch:normal;font-family:Gidole;-inkscape-font-specification:Gidole;fill:#f5cb5c;fill-opacity:1">voss</tspan></text>
    </g>
    <g
       id="Group"
       transform="translate(40.000000, 360.000000)">
      <rect
         id="Rectangle-36"
         x="0"
         y="0"
         width="420"
         height="35" />
      <text
         id="captionText.primary"
         font-family="Share Tech Mono"
         font-size="30"
         font-weight="400"
         letter-spacing="1.5"
         fill="#004a55"
         data-text-alignment="C"
         font-style="normal"><tspan
           x="210"
           y="167.5"
           id="tspan10" /></text>
    </g>
  </g>
</svg>
