<?xml version="1.0" encoding="UTF-8" standalone="no"?>
<svg
   viewBox="0 0 300 100"
   version="1.1"
   id="svg_null"
   width="300"
   height="100"
   xmlns="http://www.w3.org/2000/svg"
   xmlns:svg="http://www.w3.org/2000/svg">
  <defs
     id="defs18">
    <rect
       x="135.27736"
       y="24.992274"
       width="145.20975"
       height="61.173183"
       id="rect1125" />
  </defs>
  <g
     id="root"
     stroke="none"
     stroke-width="1"
     fill="none"
     fill-rule="evenodd"
     transform="translate(1.4819336,-50)">
    <rect
       id="background.accent"
       fill="#f6f6f6"
       x="-1.4819336"
       y="50"
       width="300"
       height="100"
       style="fill:#ffffff;fill-opacity:1;stroke-width:0.346409" />
    <rect
       id="Rectangle-35"
       x="56.99078"
       y="95"
       width="420"
       height="60" />
    <g
       id="g1093"
       transform="translate(-17.998459)">
      <path
         d="m 135.41433,96.06798 -11.6625,-27.842009 c -0.142,-0.3395 -0.4285,-0.5925 -0.7765,-0.6865 -0.348,-0.094 -0.7185,-0.018 -1.005,0.2055 L 98.00933,86.45248 74.048332,67.744971 c -0.2865,-0.2235 -0.6575,-0.299001 -1.005,-0.205 -0.348,0.0935 -0.635,0.3465 -0.7765,0.686 l -11.6625,27.842009 c -0.195,0.465 -0.084,1.005 0.2765,1.35 L 97.21233,132.178 c 0.224,0.2145 0.51,0.322 0.797,0.322 0,0 0,0 0,0 0.287,0 0.573,-0.1075 0.797,-0.322 l 36.3315,-34.76002 c 0.3605,-0.345 0.471,-0.885 0.2765,-1.35 z m -37.8935,18.70601 c 0.0025,0.001 0.2285,0.11 0.4895,0.11 0.261,0 0.419,-0.081 0.4585,-0.098 0.0075,-0.004 3.4195,-1.6115 3.4195,-1.6115 l -3.879,13.79951 -3.8785,-13.80001 z m 0.4885,-2.4085 -4.734,-2.234 -5.225,-18.59001 9.959,-2.352 9.9595,2.3525 -5.225,18.58951 z m -32.986498,-17.84401 5.596,-6.3785 -0.411,5.1535 z m 8.136,-8.8215 8.063498,-1.655 3.5105,5.82 -12.134998,2.867 z m 0.198,-2.486 0.859,-10.785007 5.694498,9.440007 z m 11.082498,1.6075 9.129,2.9565 -6.43,1.5185 z m 18.0115,2.9565 9.1285,-2.9565 -2.6995,4.475 z m 12.3455,-3.733 8.0635,1.655 0.5605,7.0315 -12.135,-2.8665 z m 1.3125,-2.1755 5.694,-9.440507 0.859,10.785007 -6.553,-1.345 z m 9.7015,11.427 -0.4105,-5.1535 5.596,6.3785 -5.185,-1.225 z m -12.3465,-11.5995 -9.4055,3.046 14.304,-11.168007 z m -30.909,0 -4.899,-8.122007 14.3045,11.167507 -9.4055,-3.045 z m -11.621998,2.5035 -5.384,6.137 6.045,-14.43151 -0.661,8.29501 z m -0.114,11.412 4.2885,5.9465 -9.8285,-4.638 z m 2.4845,-0.587 12.465998,-2.945 4.7015,16.72801 -10.9565,-5.17 z m 18.022498,16.82551 3.7615,13.383 -12.688,-17.595 z m 13.367,0 8.9265,-4.2125 -12.6885,17.5955 z m 0.855,-3.043 4.702,-16.72751 12.465,2.945 -6.2105,8.61251 z m 19.652,-13.19551 5.54,1.3085 -9.8285,4.638 z m -0.114,-11.412 -0.661,-8.29401 6.045,14.43101 z m -57.304998,16.54 10.211498,4.81901 11.516,15.969 -21.727998,-20.78751 z m 50.245998,4.81851 10.2115,-4.81851 -21.7275,20.78801 z"
         id="shape.primary"
         fill="#004a55"
         fill-rule="nonzero"
         style="fill:#04615b;fill-opacity:1;stroke-width:0.5" />
      <text
         xml:space="preserve"
         transform="translate(16.516525,45.54782)"
         id="text1123"
         style="font-style:normal;font-weight:normal;font-size:53.3333px;line-height:1.25;font-family:sans-serif;white-space:pre;shape-inside:url(#rect1125);display:inline;fill:#04615b;fill-opacity:1;stroke:none"><tspan
           x="135.27734"
           y="73.518835"
           id="tspan182">VOSS</tspan></text>
    </g>
    <g
       id="Group"
       transform="translate(40,360)">
      <rect
         id="Rectangle-36"
         x="0"
         y="0"
         width="420"
         height="35" />
      <text
         id="captionText.primary"
         font-family="'Share Tech Mono'"
         font-size="30px"
         font-weight="400"
         letter-spacing="1.5"
         fill="#004a55"
         data-text-alignment="C"
         font-style="normal"><tspan
           x="210"
           y="167.5"
           id="tspan10" /></text>
    </g>
  </g>
</svg>
